# xmcd
# 
# Track frame offsets:
#     150
#     16425
#     38351
#     58266
#     77011
#     91833
#     113461
#     131541
#     142418
#     163113
#     177541
#     190839
#     226018
# 
# Disc length: 4063
# 
# Revision: 0
# Processed by: cddbd v1.5.2PL0 Copyright (c) Steve Scherf et al.
# Submitted via: fre:ac v1.0.17
# 
DISCID=a40fdd0d
DTITLE=Dan Baker's One Man Band - Monophonic Orchestra
DYEAR=2010
DGENRE=Blues
TTITLE0=Gangsters
TTITLE1=Seven Nation Army
TTITLE2=Jamaica Song
TTITLE3=Spooky
TTITLE4=Crosstown Traffic
TTITLE5=Virtual Insanity
TTITLE6=The Audience
TTITLE7=Golden Brown
TTITLE8=Why Did You Do It
TTITLE9=Destiny
TTITLE10=The Man At TSK
TTITLE11=Back To The Back
TTITLE12=Data track
EXTD=
EXTT0=
EXTT1=
EXTT2=
EXTT3=
EXTT4=
EXTT5=
EXTT6=
EXTT7=
EXTT8=
EXTT9=
EXTT10=
EXTT11=
EXTT12=
PLAYORDER=
